<?xml version="1.0" encoding="utf-8"?>
<!-- Generator: Adobe Illustrator 19.0.0, SVG Export Plug-In . SVG Version: 6.00 Build 0)  -->
<svg version="1.1" id="Layer_1" xmlns="http://www.w3.org/2000/svg" xmlns:xlink="http://www.w3.org/1999/xlink" x="0px" y="0px"
	 viewBox="0 0 40 40" style="enable-background:new 0 0 40 40;" xml:space="preserve">
<style type="text/css">
	.st0{fill:#EEE0CB;}
	.st1{fill:#BAA898;}
</style>
<g id="XMLID_1_">
	<ellipse class="st0" cx="20.5" cy="19.1" rx="16.8" ry="16.8"/>
	<g>
		<path class="st1" d="M25.4,15.5c0.1-0.1,0.1-0.2,0.1-0.3c0,0,0-0.2,0-0.5c0-0.1,0-0.1-0.1-0.1c0,0-0.1,0-0.1,0.1
			c-0.2,0.2-0.4,0.5-0.6,0.9c0,0,0.1,0,0.2,0C25.2,15.7,25.3,15.6,25.4,15.5z"/>
		<path class="st1" d="M14.6,12.8c-0.1,0-0.2,0.1-0.3,0.2c-0.3,0.2-0.7,0.6-1.2,1C13,14,13,14,12.9,14c0,0-0.1,0-0.1-0.1
			c0,0,0-0.1,0.1-0.1c0.2-0.3,0.4-0.6,0.6-0.8c-0.1-0.1-0.2-0.1-0.3-0.1c-0.1,0-0.1,0-0.2,0.1c-0.3,0.2-0.5,0.6-0.9,1.2
			c-0.4,0.7-0.6,1.4-0.5,2c0,0.2,0.1,0.4,0.1,0.5c0.1,0.1,0.2,0.2,0.4,0.3c0.1,0.1,0.3,0.1,0.4,0.1c0.5-0.1,0.9-0.5,1.4-1.4
			c0.4-0.9,0.7-1.7,0.7-2.6C14.7,12.9,14.7,12.8,14.6,12.8z"/>
		<path class="st1" d="M14.5,25c0.1,0,0.2,0,0.3-0.1c0.2-0.1,0.4-0.4,0.5-0.8c0.2-0.4,0.3-0.7,0.3-1.1c0-0.2,0-0.3,0-0.3
			c0-0.1,0-0.1-0.1-0.1c0,0-0.1,0-0.1,0L15,22.8c-0.1,0-0.1,0-0.1,0c0,0,0,0-0.1-0.1c-0.1,0.2-0.3,0.4-0.4,0.7
			c-0.1,0.2-0.2,0.5-0.2,0.6c0,0.1,0,0.2,0,0.3C14.2,24.8,14.3,25,14.5,25z"/>
		<path class="st1" d="M20.5,2.3c-9.2,0-16.7,7.5-16.7,16.8s7.5,16.8,16.8,16.8c9.3,0,16.7-7.5,16.7-16.8S29.8,2.3,20.5,2.3z
			 M19.8,3.9c7.9-0.4,14.5,5.3,15.1,12.8c-1.1-7.4-8-12.6-15.5-12C12.2,5.3,6.4,11,6,18.1C5.8,10.6,12,4.3,19.8,3.9z M29.1,14.6
			c0.1,0,0.3,0,0.5,0c0.1,0,0.1,0,0.1,0.1c0,0.1,0,0.1-0.1,0.1c0,0-0.3,0-0.8,0.1c-0.3,0.8-0.4,1.5-0.5,2c0,0,0,0.1,0,0.1
			c0,0.1,0,0.1,0.1,0.1c0.1,0,0.2-0.1,0.6-0.4c0,0,0.1-0.1,0.1-0.1c0,0,0,0,0.1,0c0,0,0,0.1,0,0.1c-0.2,0.2-0.4,0.5-0.5,0.6
			c-0.1,0.1-0.1,0.1-0.2,0.1c-0.1,0-0.1,0-0.2-0.1c-0.1,0-0.2-0.1-0.2-0.2c0,0,0,0,0-0.1c0.1-0.6,0.2-1.3,0.5-2.2
			c-0.1,0-0.2,0-0.3,0c0,0-0.1,0-0.1-0.1c0-0.1,0-0.1,0.1-0.1s0.1,0,0.3-0.1c0.1,0,0.1-0.1,0.2-0.1c0.2-0.8,0.4-1.2,0.6-1.5
			c0.1-0.1,0.2-0.2,0.3-0.2c0.1,0,0.2,0,0.4,0.1c0.1,0,0.1,0.1,0.1,0.1c0,0,0,0-0.1,0c0,0,0,0,0,0c0,0,0,0,0,0
			c-0.1,0-0.2,0.1-0.3,0.3c-0.1,0.2-0.3,0.5-0.5,1.1C29,14.5,29,14.5,29.1,14.6C29,14.5,29,14.6,29.1,14.6z M27.8,14.5
			c0,0.1,0,0.3-0.1,0.5c0,0.1,0,0.1-0.1,0.2c0,0,0,0-0.1,0.1c-0.1,0-0.1,0-0.2,0c0,0-0.1,0-0.1-0.1c0,0,0-0.1,0-0.1
			c0.1-0.2,0.1-0.4,0.1-0.5c0-0.1,0-0.1,0.1-0.2c0.1-0.1,0.2-0.1,0.2-0.1C27.8,14.4,27.8,14.4,27.8,14.5z M27,15.2
			c0,0.1,0.1,0.3,0.2,0.7c0.1,0.3,0.1,0.4,0.1,0.6c0,0.3-0.1,0.5-0.5,0.6c0,0.1-0.1,0.2-0.1,0.2c-0.1,0.1-0.1,0.1-0.2,0.1
			c-0.1,0-0.1,0-0.2,0c-0.1,0-0.3,0-0.5-0.1c-0.1,0-0.1,0-0.1-0.1c0-0.1,0.1-0.1,0.2-0.1c0.2,0,0.4,0,0.7-0.1c0.1,0,0.2-0.1,0.3-0.2
			c0-0.1,0-0.1,0-0.2c0-0.1-0.1-0.4-0.2-0.8c-0.1-0.4-0.2-0.6-0.2-0.7c0-0.3,0.3-0.5,0.8-0.6c0,0,0.1,0,0.1,0.1c0,0,0,0-0.1,0.1
			c-0.2,0.1-0.4,0.2-0.4,0.4C26.9,15.1,26.9,15.2,27,15.2z M24.8,17.4c-0.1,0-0.2-0.1-0.4-0.2c-0.2-0.1-0.3-0.2-0.3-0.3
			c0,0,0-0.1,0-0.1c0-0.3,0.1-0.7,0.2-1c-0.1,0-0.1-0.1-0.1-0.1c0,0,0,0,0.1,0c0,0,0.1,0,0.1,0c0.2-0.5,0.4-0.8,0.5-1
			c0.1-0.1,0.2-0.2,0.3-0.2c0,0,0.1,0,0.3,0.1c0-0.1,0-0.1,0.1-0.1c0,0,0.1,0,0.2,0c0.1,0,0.1,0,0.1,0.1c0,0,0,0,0,0.1s0,0.1,0,0.1
			c0,0.1,0,0.2,0,0.3s0,0.2,0,0.2c0,0.3-0.1,0.5-0.2,0.6c-0.1,0.1-0.3,0.2-0.5,0.2c-0.1,0-0.2,0-0.5-0.1c0,0.1-0.1,0.2-0.1,0.4
			c-0.1,0.3-0.1,0.5-0.1,0.7c0,0.1,0,0.2,0.1,0.2c0,0,0.1,0,0.1,0c0.3-0.1,0.6-0.4,1.1-0.9c0,0,0.1,0,0.1,0c0,0,0.1,0,0.1,0.1
			c0,0,0,0.1,0,0.1C25.4,17,25,17.4,24.8,17.4z M25.6,22.3c0,0.1,0,0.3-0.1,0.5c0,0.1,0,0.1-0.1,0.2c0,0,0,0-0.1,0.1
			c-0.1,0-0.1,0-0.2,0c0,0-0.1,0-0.1-0.1c0,0,0-0.1,0-0.1c0.1-0.2,0.1-0.4,0.1-0.5s0-0.1,0.1-0.2c0.1-0.1,0.2-0.1,0.2-0.1
			C25.5,22.2,25.6,22.2,25.6,22.3z M24.7,23.1c0,0.1,0.1,0.3,0.2,0.7C25,24,25,24.2,25,24.3c0,0.3-0.1,0.5-0.5,0.6
			c0,0.1-0.1,0.2-0.1,0.2c-0.1,0.1-0.1,0.1-0.2,0.1c-0.1,0-0.1,0-0.2,0c-0.1,0-0.3,0-0.5-0.1c-0.1,0-0.1,0-0.1-0.1
			c0-0.1,0.1-0.1,0.2-0.1c0.2,0,0.4,0,0.7-0.1c0.1,0,0.2-0.1,0.3-0.2c0-0.1,0-0.1,0-0.2c0-0.1-0.1-0.4-0.2-0.8
			c-0.1-0.4-0.2-0.6-0.2-0.7c0-0.3,0.3-0.5,0.8-0.6c0,0,0.1,0,0.1,0.1c0,0,0,0-0.1,0.1c-0.2,0.1-0.4,0.2-0.4,0.4
			C24.6,22.9,24.7,23,24.7,23.1z M18.1,26.7c0,0,0,0.1,0,0.1c0,0,0,0.1,0,0.1c0,0-0.1,0-0.2-0.1c-0.2-0.1-0.2-0.2-0.2-0.3
			c0.2-1,0.5-2.3,1-3.8c-0.2,0-0.3,0-0.3,0c0,0-0.1,0-0.1-0.1c0-0.1,0-0.1,0-0.1c0,0,0,0,0,0c-0.3,0-0.5,0.1-0.8,0.1
			c-0.3,0.9-0.6,1.8-0.7,2.6c-0.1,0.6-0.2,1.1-0.2,1.4c0,0,0,0.1,0,0.1s0,0.1,0,0.1c0,0,0,0.1,0,0.1c0,0-0.1,0-0.2-0.1
			c-0.2-0.1-0.2-0.2-0.2-0.3c0.2-1,0.5-2.3,1-3.8c-0.2,0-0.3,0-0.3,0c0,0-0.1,0-0.1-0.1c0-0.1,0-0.1,0-0.1c0,0,0-0.1,0.1-0.1
			c0.1,0,0.2,0,0.3-0.1c0.1,0,0.2-0.1,0.2-0.1c0.4-1.1,0.7-1.8,0.9-2.2c0.2-0.3,0.3-0.5,0.5-0.5c0.2,0,0.4,0.1,0.7,0.4
			c0,0,0.1,0.1,0.1,0.1c0,0,0,0.1-0.1,0.1c0,0,0,0-0.1,0C18.9,20,18.8,20,18.7,20c-0.1,0-0.1,0-0.2,0.1c-0.2,0.1-0.6,0.9-1.1,2.3
			c0.4,0.1,0.6,0.1,0.7,0.1c0.1,0,0.1,0,0.1,0.1c0,0,0,0,0.1-0.1c0.1,0,0.2,0,0.3-0.1c0.1,0,0.2-0.1,0.2-0.1
			c0.4-1.1,0.7-1.8,0.9-2.2c0.2-0.3,0.3-0.5,0.5-0.5c0.2,0,0.4,0.1,0.7,0.4c0,0,0.1,0.1,0.1,0.1c0,0,0,0.1-0.1,0.1c0,0,0,0-0.1,0
			C20.6,20,20.5,20,20.4,20c-0.1,0-0.1,0-0.2,0.1c-0.2,0.1-0.6,0.9-1.1,2.3c0.4,0.1,0.6,0.1,0.7,0.1c0.1,0,0.1,0,0.1,0.1
			c0,0,0,0.1-0.1,0.1c-0.3,0-0.5,0.1-0.8,0.1c-0.3,0.9-0.6,1.8-0.7,2.6c-0.1,0.6-0.2,1.1-0.2,1.4C18.1,26.6,18.1,26.6,18.1,26.7z
			 M15.3,15.5C15.2,15.5,15.2,15.5,15.3,15.5C15.2,15.5,15.2,15.5,15.3,15.5c0.1-0.2,0.1-0.4,0.2-0.4c0.1-0.2,0.1-0.3,0.2-0.4
			c0-0.1,0.1-0.1,0.1-0.1c0.1,0,0.2,0,0.3,0.1c0,0,0,0,0,0.1L16,14.9c-0.1,0.2-0.2,0.5-0.4,0.9c-0.1,0.5-0.2,0.9-0.2,1.2
			c0,0.1,0,0.1,0.1,0.1c0,0,0.1,0,0.2-0.1c0.2-0.2,0.4-0.5,0.8-1.1c0.3-0.5,0.5-0.8,0.5-0.9c0.1-0.2,0.2-0.4,0.2-0.4
			c0,0,0.1,0,0.1,0s0.1,0,0.2,0.1s0.1,0.1,0.1,0.1c0,0,0,0,0,0s0,0,0,0c-0.3,0.6-0.5,1.2-0.7,2c0.1-0.1,0.1-0.3,0.2-0.4
			c0,0,0,0,0.1,0c0,0,0.1,0,0.1,0.1c0,0,0,0,0,0C17.1,16.7,17,17,17,17.2c0,0.1-0.1,0.2-0.1,0.2s-0.1,0-0.3-0.1
			c-0.1-0.1-0.1-0.1-0.1-0.3c0.1-0.5,0.2-0.9,0.3-1.3c-0.4,0.7-0.8,1.2-1.1,1.6c-0.1,0.1-0.1,0.1-0.2,0.1c-0.1,0-0.1,0-0.2-0.1
			c-0.2,0-0.2-0.1-0.2-0.2c0,0,0-0.1,0-0.1c0.1-0.7,0.2-1.2,0.4-1.6C15.4,15.3,15.3,15.4,15.3,15.5z M15.1,13.4
			c-0.1,0.7-0.3,1.5-0.7,2.3c-0.5,1.1-1.1,1.7-1.7,1.7c-0.1,0-0.2,0-0.3,0c-0.1,0-0.2-0.1-0.2-0.1c-0.4-0.1-0.6-0.2-0.8-0.3
			c-0.2-0.2-0.3-0.4-0.3-0.8c0-0.7,0.2-1.4,0.6-2.1c0.3-0.6,0.6-1,0.9-1.3c0.1-0.1,0.2-0.2,0.3-0.2s0.2,0,0.3,0.1
			c0,0,0.2,0.1,0.4,0.3c0.2-0.2,0.3-0.3,0.5-0.4c0.1-0.1,0.2-0.1,0.2-0.1c0.1,0,0.3,0.1,0.4,0.2c0.2,0,0.3,0,0.4,0.1
			c0.1,0,0.1,0.1,0.1,0.3C15.2,13.1,15.2,13.2,15.1,13.4z M14,23.4c0.2-0.5,0.4-0.8,0.5-1c0.1-0.1,0.2-0.2,0.2-0.2
			c0.1,0,0.2,0.1,0.4,0.2c0,0,0.1-0.1,0.3-0.1c0.1,0,0.1,0,0.2,0c0.1,0,0.2,0.1,0.3,0.2c0.1,0.1,0.1,0.2,0.1,0.3
			c0,0.2-0.1,0.5-0.1,0.8c-0.1,0.5-0.4,0.9-0.6,1.2c-0.1,0.2-0.3,0.2-0.5,0.2c-0.1,0-0.2,0-0.3,0c-0.2,0-0.4-0.1-0.5-0.2
			c-0.1-0.1-0.2-0.3-0.2-0.5C13.8,24.2,13.9,23.8,14,23.4z M18,15.4C18,15.4,18,15.4,18,15.4c-0.1,0-0.1,0-0.1,0c0,0,0,0,0-0.1
			c0.1-0.1,0.3-0.3,0.4-0.6c0.1-0.1,0.1-0.2,0.2-0.2c0,0,0.1,0,0.3,0.1c0.1,0,0.1,0.1,0,0.1c0,0.1-0.1,0.3-0.3,0.7
			c-0.1,0.4-0.2,0.7-0.3,0.9c0.3-0.7,0.7-1.3,1.1-1.8c0.1-0.1,0.1-0.2,0.2-0.2c0,0,0.1,0,0.2,0.1c0.1,0,0.2,0,0.2,0
			c0,0,0.1,0.1,0.1,0.2c0,0.3,0,0.6-0.1,0.9c0,0.1-0.1,0.1-0.1,0.1c0,0-0.1,0-0.2-0.1c-0.1,0-0.1-0.1,0-0.2c0.1-0.2,0.1-0.4,0.1-0.5
			c0,0,0-0.1,0-0.1c0,0-0.1,0-0.1,0.1c-0.5,0.6-0.8,1.3-1.1,2.1c-0.1,0.2-0.1,0.4-0.2,0.4c0,0-0.1,0-0.3-0.1c-0.1,0-0.1-0.1-0.1-0.2
			c0.2-0.8,0.4-1.5,0.6-2C18.2,15.2,18.1,15.3,18,15.4z M19.6,24.5c0-0.3,0.1-0.7,0.2-1c-0.1,0-0.1-0.1-0.1-0.1c0,0,0,0,0.1,0
			c0,0,0.1,0,0.1,0c0.2-0.5,0.4-0.8,0.5-1c0.1-0.1,0.2-0.2,0.3-0.2c0,0,0.1,0,0.3,0.1c0-0.1,0-0.1,0.1-0.1c0,0,0.1,0,0.2,0
			c0.1,0,0.1,0,0.1,0.1c0,0,0,0,0,0.1s0,0.1,0,0.1c0,0.1,0,0.2,0,0.3c0,0.1,0,0.2,0,0.2c0,0.3-0.1,0.5-0.2,0.6
			c-0.1,0.1-0.3,0.2-0.5,0.2c-0.1,0-0.2,0-0.5-0.1c0,0.1-0.1,0.2-0.1,0.4c-0.1,0.3-0.1,0.5-0.1,0.7c0,0.1,0,0.2,0.1,0.2
			c0,0,0.1,0,0.1,0c0.3-0.1,0.6-0.4,1.1-0.9c0,0,0.1,0,0.1,0c0,0,0.1,0,0.1,0.1c0,0,0,0.1,0,0.1c-0.6,0.7-0.9,1.1-1.2,1.1
			c-0.1,0-0.2-0.1-0.4-0.2C19.7,24.9,19.6,24.8,19.6,24.5C19.6,24.6,19.6,24.6,19.6,24.5z M21.4,17.2c0,0-0.1-0.1-0.1-0.2
			c0,0,0-0.1,0-0.1c0.3-1.5,0.6-2.7,1-3.7c0.3-0.8,0.6-1.3,0.8-1.5c0.1-0.1,0.1-0.1,0.2-0.1c0.1,0,0.1,0,0.2,0.1
			c0.1,0.1,0.2,0.2,0.3,0.3c0,0,0,0,0,0.1c0,0,0,0.1-0.1,0.1c0,0,0,0-0.1,0C23.8,12,23.7,12,23.6,12c-0.1,0-0.3,0.1-0.5,0.4
			c-0.6,1-1.1,2.3-1.3,3.9c0.2-0.4,0.4-0.7,0.5-0.9c0.2-0.3,0.5-0.6,0.7-0.9c0.1-0.1,0.2-0.2,0.3-0.2c0,0,0.1,0,0.2,0.1
			c0.2,0.1,0.3,0.2,0.3,0.4c0,0.4-0.1,0.9-0.3,1.3c-0.2,0.4-0.4,0.7-0.6,1c-0.1,0.1-0.1,0.1-0.2,0.1c-0.1,0-0.4-0.2-0.6-0.5
			c0,0,0-0.1,0-0.1c0,0,0-0.1,0.1-0.1c0,0,0.1,0,0.1,0c0.1,0.1,0.3,0.2,0.3,0.2c0.1,0,0.2-0.1,0.3-0.2c0.2-0.2,0.3-0.5,0.4-0.8
			c0.1-0.4,0.2-0.7,0.2-1c0-0.1,0-0.2-0.1-0.2c0,0-0.1,0-0.2,0.1c-0.3,0.2-0.6,0.6-0.9,1c-0.3,0.5-0.5,0.9-0.7,1.4
			c0,0.1-0.1,0.1-0.1,0.1c0,0,0,0-0.1,0C21.4,17.2,21.4,17.2,21.4,17.2z M22,23.2C22,23.2,22,23.2,22,23.2c-0.1,0-0.1,0-0.1,0
			c0,0,0,0,0-0.1c0.1-0.1,0.3-0.3,0.4-0.6c0.1-0.1,0.1-0.2,0.2-0.2c0,0,0.1,0,0.2,0.1c0.1,0,0.1,0.1,0,0.1c-0.1,0.1-0.1,0.3-0.3,0.7
			c-0.1,0.4-0.2,0.7-0.3,0.9c0.3-0.7,0.7-1.3,1.1-1.8c0.1-0.1,0.1-0.2,0.2-0.2c0,0,0.1,0,0.2,0.1c0.1,0,0.2,0,0.2,0
			c0,0,0.1,0.1,0.1,0.2c0,0.3,0,0.6-0.1,0.9c0,0.1-0.1,0.1-0.1,0.1c0,0-0.1,0-0.2-0.1c-0.1,0-0.1-0.1,0-0.2c0.1-0.2,0.1-0.4,0.1-0.5
			c0,0,0-0.1,0-0.1c0,0-0.1,0-0.1,0.1c-0.5,0.6-0.8,1.3-1.1,2.1c-0.1,0.2-0.1,0.4-0.2,0.4c0,0-0.1,0-0.3-0.1c-0.1,0-0.1-0.1-0.1-0.2
			c0.2-0.8,0.4-1.5,0.6-2C22.2,23,22.1,23.1,22,23.2z M21.3,34.1c-8,0.4-14.7-5.3-15.3-12.7c1.1,7.3,8.1,12.6,15.7,12
			C29,32.8,34.9,27.1,35.2,20C35.4,27.5,29.2,33.7,21.3,34.1z"/>
		<path class="st1" d="M21,23.4c0.1-0.1,0.1-0.2,0.1-0.3c0,0,0-0.2,0-0.5c0-0.1,0-0.1-0.1-0.1c0,0-0.1,0-0.1,0.1
			c-0.2,0.2-0.4,0.5-0.6,0.9c0,0,0.1,0,0.2,0C20.7,23.5,20.9,23.4,21,23.4z"/>
	</g>
</g>
</svg>
