<?xml version="1.0" encoding="utf-8"?>
<!-- Generator: Adobe Illustrator 19.0.0, SVG Export Plug-In . SVG Version: 6.00 Build 0)  -->
<svg version="1.1" id="Layer_1" xmlns="http://www.w3.org/2000/svg" xmlns:xlink="http://www.w3.org/1999/xlink" x="0px" y="0px"
	 viewBox="0 0 2000 200" style="enable-background:new 0 0 2000 200;" xml:space="preserve">
<style type="text/css">
	.st0{fill:#05674E;}
</style>
<g id="XMLID_1_">
	<path id="XMLID_2_" class="st0" d="M1971.1,138.6c-19.6,0-37.9,5.7-53.2,15.6c-0.1-0.1-0.2-0.1-0.3-0.2h0
		c-15.4-10-33.7-15.6-53.4-15.6c-19.7,0-38.1,6-53.4,16c0,0,0,0,0,0c-15.4-10-33.7-15.8-53.4-15.8c-19.7,0-38.1,5.8-53.4,15.8
		c0,0,0,0,0,0c-15.4-10-33.7-15.8-53.4-15.8c-19.7,0-38.1,5.8-53.4,15.8c0,0,0,0,0,0c-15.4-10-33.7-15.8-53.4-15.8
		c-19.7,0-38.1,5.8-53.4,15.8c0,0,0,0,0,0c-15.4-10-33.7-15.8-53.4-15.8c-19.7,0-38.1,5.8-53.4,15.8c0,0,0,0,0,0
		c-15.4-10-33.7-15.8-53.4-15.8c-19.7,0-38.1,5.8-53.4,15.8c0,0,0,0,0,0c-15.4-10-33.7-15.8-53.4-15.8c-19.7,0-38.1,5.8-53.4,15.8
		c0,0,0,0,0,0c-15.4-10-33.7-15.8-53.4-15.8c-19.7,0-38.1,5.8-53.4,15.8c0,0,0,0,0,0c-15.4-10-33.7-15.8-53.4-15.8
		c-19.7,0-38.1,5.8-53.4,15.8c0,0,0,0,0,0c-15.4-10-33.7-15.8-53.4-15.8c-19.7,0-38.1,5.8-53.4,15.8c0,0,0,0,0,0
		c-15.4-10-33.7-15.8-53.4-15.8c-19.7,0-38.1,5.8-53.4,15.8c0,0,0,0,0,0c-15.4-10-33.7-15.8-53.4-15.8c-19.7,0-38.1,5.8-53.4,15.8
		c0,0,0,0,0,0c-15.4-10-33.7-15.8-53.4-15.8c-19.7,0-38.1,5.8-53.4,15.8c0,0,0,0,0,0c-15.4-10-33.7-15.8-53.4-15.8
		c-19.7,0-38.1,5.8-53.4,15.8c0,0,0,0,0,0c-15.4-10-33.7-15.8-53.4-15.8c-19.7,0-38.1,5.8-53.4,15.8c0,0,0,0,0,0
		c-15.4-10-33.7-15.8-53.4-15.8c-19.7,0-38.1,5.8-53.4,15.8c0,0,0,0,0,0c-15.4-10-33.7-15.8-53.4-15.8c-23.9,0-45.8,8.5-62.8,22.7
		c-0.1-0.1-0.2-0.2-0.3-0.3h0c-17-14-39.1-22.7-63.1-22.7c-13,0-25.8,2.6-36.8,7.2V176v105h76.9h45.9h61h65.1h41.8h65.1h41.8h65.1
		h41.8h65.1h41.8h65.1h41.8h65.1h41.8h65.1h41.8h65.1h41.8h65.1h41.8h65.1h41.8h65.1h41.8h65.1h41.8h65.1h41.8h65.1h41.8h65.1h41.8
		h65.1h11.7h30.1h65.1h33.8v-5h24V145.8C1996.6,141.1,1984.1,138.6,1971.1,138.6z"/>
	<path id="XMLID_26_" class="st0" d="M-49,278.9v0.1h0.1C-48.9,279-49,279-49,278.9z"/>
</g>
</svg>
