<?xml version="1.0" encoding="utf-8"?>
<!-- Generator: Adobe Illustrator 19.0.0, SVG Export Plug-In . SVG Version: 6.00 Build 0)  -->
<svg version="1.1" xmlns="http://www.w3.org/2000/svg" xmlns:xlink="http://www.w3.org/1999/xlink" x="0px" y="0px"
	 viewBox="0 0 300 253" style="enable-background:new 0 0 300 253;" xml:space="preserve">
<style type="text/css">
	.st0{fill:none;}
	.st1{fill:#FFFFFF;}
</style>
<g id="Layer_1">
</g>
<g id="Layer_2">
	<g id="XMLID_225_">
		<path id="XMLID_264_" class="st0" d="M148.9,136.2c0.2,0,0.3-0.1,0.4-0.3c0.6-0.8,1.1-1.4,1.4-1.8c0.3-0.5,0.5-0.7,0.5-0.7
			c0.1,0,0.1,0.3,0.2,0.8c0.2,1.8,0.1,4.3-0.3,7.5c-0.4,3-0.8,5.5-1.4,7.6c-0.1,0.4-0.2,0.6-0.1,0.7c0,0.1,0.2,0.2,0.5,0.3
			c0.8,0.2,1.4,0.3,1.7,0.3c0.5-0.1,0.8-0.5,1-1.3c1.7-6.5,4.1-11.9,7.2-16.2c0.3-0.4,0.6-0.7,0.8-0.7c0.3,0,0.5,0.3,0.6,0.9
			c0.4,1.6,0.4,4,0.1,7.2c-0.3,3-0.7,5.6-1.4,7.7c-0.1,0.4-0.2,0.6-0.2,0.7c0,0.2,0.4,0.4,1,0.6c0.6,0.1,1,0.2,1.2,0.1
			c0.3-0.1,0.6-0.3,0.7-0.8c0.1-0.7,0.3-1.4,0.4-2.1c1-2.8,1.8-4.9,2.5-6.4c0-0.1,0-0.2,0-0.3c0-0.3-0.2-0.4-0.4-0.4
			c-0.1,0-0.2,0.1-0.3,0.3c-0.5,1-0.9,1.8-1.3,2.4c0.2-1.1,0.3-2.6,0.4-4.6c0.1-2.4,0.1-4.1-0.1-5.1c-0.2-1-0.9-1.6-2.2-1.8
			c-0.5-0.3-0.8-0.4-1-0.3c-0.2,0-0.5,0.2-0.9,0.5c-0.8,0.6-2,2.2-3.5,4.9c-1.5,2.7-2.6,5-3.3,7.1c0.8-4.5,1.1-7.6,1-9.2
			c0-0.8-0.7-1.2-2-1.4c-0.4-0.5-0.7-0.7-1.1-0.6c-0.2,0-0.4,0.2-0.6,0.5c-0.8,1.4-1.5,2.5-2,3.5c-0.1,0.2-0.2,0.3-0.2,0.4
			C148.6,136.2,148.7,136.2,148.9,136.2z"/>
		<path id="XMLID_263_" class="st0" d="M172.4,193.4c-0.1,0.3-0.2,0.5-0.1,0.6c0,0.1,0.2,0.2,0.7,0.4c0.7,0.2,1.2,0.3,1.5,0.3
			c0.4-0.1,0.6-0.3,0.6-0.6c0.2-1.2,0.7-2.5,1.3-4.1c0.9-2.1,1.3-3.2,1.4-3.3c0.1-0.4,0-0.6-0.2-0.6c-0.1,0-0.2,0.1-0.3,0.3
			c-0.6,1.1-1.1,1.9-1.4,2.4c0.7-4.9,1.1-8.4,1.1-10.4c0-0.3,0-0.7-0.1-0.9c-0.1-0.6-0.3-0.9-0.7-1.1c-0.1,0-0.5-0.1-1.2-0.1
			c-0.5-0.2-0.9-0.4-1.1-0.3c-0.2,0-0.4,0.2-0.6,0.5c-0.6,1-1.2,2-1.8,3.1c-0.1,0.2-0.1,0.4-0.1,0.5c0.1,0.4,0.3,0.3,0.7-0.2
			l1.2-1.5c0.3-0.4,0.5-0.6,0.6-0.6c0.2,0,0.3,0.3,0.4,1c0.1,1.6,0,4-0.4,7.4C173.5,189.4,173,191.9,172.4,193.4z"/>
		<path id="XMLID_262_" class="st0" d="M168.4,131.3c0.7,0,1.4,0,2.2,0c-0.7,5.8-1,10.7-0.9,14.6c0,0.1,0,0.3,0,0.4
			c0.1,0.7,0.6,1,1.5,1.1c0.8,0.4,1.3,0.6,1.6,0.5c0.3-0.1,0.7-0.4,1.1-0.9c1-1.3,1.9-2.8,2.9-4.6c0.1-0.3,0.2-0.5,0.1-0.7
			c-0.1-0.2-0.2-0.2-0.4-0.2c-0.2,0-0.4,0.2-0.6,0.5c-1.7,2.3-2.7,3.4-3.1,3.5c-0.3,0-0.4-0.2-0.5-0.7c0-0.1,0-0.3-0.1-0.5
			c-0.2-3.7,0.1-8.2,1-13.7c2.9-0.7,4.5-1.1,4.8-1.2c0.4-0.1,0.5-0.4,0.5-0.7c-0.1-0.5-0.4-0.6-0.9-0.5c-1.4,0.4-2.6,0.6-3.5,0.7
			c-0.3,0-0.5,0-0.6-0.1c0-0.1,0-0.3,0-0.6c0.6-3.9,1.2-6.4,1.8-7.6c0.6-1.4,1.2-2.1,1.7-2.2c0.1,0,0.2,0,0.3,0c0.1,0,0.2,0,0.3,0
			c0.3,0,0.4-0.2,0.4-0.4c0-0.3-0.3-0.5-0.7-0.7c-1.2-0.4-2-0.6-2.6-0.5c-0.6,0.1-1.1,0.6-1.5,1.5c-0.7,1.6-1.4,5-2.1,10.1
			c-0.4,0.4-0.8,0.7-1.3,0.9c-0.8,0.4-1.3,0.6-1.6,0.8c-0.3,0.1-0.4,0.4-0.3,0.7C167.9,131.2,168.1,131.3,168.4,131.3z"/>
		<path id="XMLID_261_" class="st0" d="M162,158.3c-0.4,0.1-0.8,0.3-1.1,0.8c-1.4,1.8-2.7,5.3-3.9,10.6c-1.6,7.1-2.5,15.4-2.6,25.1
			c0,0.4,0,0.6,0,0.9c0.1,0.5,0.3,0.8,0.6,1.1c0.1,0.1,0.6,0.3,1.4,0.7c0.2,0.1,0.4,0.1,0.5,0.1c0.3,0,0.4-0.3,0.5-0.9
			c0.4-3,1.4-6.2,2.8-9.6c1.4-3.2,2.9-5.7,4.4-7.6c0.3-0.4,0.6-0.6,0.9-0.6c0.5-0.1,0.8,0.3,1,1c0.3,2,0.2,4.3-0.3,7
			c-0.5,2.4-1.1,4.3-1.9,5.8c-0.4,0.8-1,1.3-1.6,1.4c-0.6,0.1-1.4-0.1-2.4-0.7c-0.3-0.2-0.5-0.2-0.8-0.2c-0.3,0-0.4,0.2-0.3,0.4
			c0,0.2,0.2,0.4,0.4,0.6c2.1,1.9,3.6,2.8,4.5,2.6c0.5-0.1,0.9-0.4,1.3-0.9c1.3-1.8,2.3-4.1,3-7c0.7-3,1-5.9,0.7-8.8
			c-0.1-1.3-0.8-2.1-2.3-2.5c-0.8-0.3-1.3-0.4-1.6-0.4c-0.6,0.1-1.3,0.6-2,1.4c-1.4,1.8-2.7,3.9-3.9,6.4c-0.6,1.2-1.4,3.2-2.5,6.1
			c0-10.8,1.5-19.7,4.4-26.9c0.8-2,1.7-3.1,2.6-3.2c0.3-0.1,0.9,0,1.6,0.3c0.2,0.1,0.3,0.1,0.4,0.1c0.4-0.1,0.5-0.2,0.5-0.5
			c0-0.2-0.1-0.3-0.3-0.4c-0.9-0.5-1.7-1-2.5-1.4C163,158.4,162.4,158.2,162,158.3z"/>
		<path id="XMLID_260_" class="st0" d="M178.5,168c-1-0.5-1.6-0.7-1.9-0.7c-0.1,0-0.4,0.3-0.6,0.7c-0.3,0.6-1.1,1.6-2.3,3
			c-0.1,0-0.2,0-0.3,0.1c0,0.1,0,0.1,0.1,0.2c0.1,0.1,0.2,0.2,0.3,0.2c0.4,0.2,0.8,0.3,1.2,0.3c0.8,0,1.6-0.3,2.3-1
			c1.1-1.1,1.6-1.9,1.6-2.3C178.9,168.4,178.7,168.2,178.5,168z"/>
		<path id="XMLID_259_" class="st0" d="M204.8,126.9c0.2,0,0.3-0.1,0.4-0.3c0.6-0.8,1.1-1.4,1.4-1.8c0.3-0.5,0.5-0.7,0.5-0.7
			c0.1,0,0.1,0.3,0.2,0.8c0.2,1.8,0.1,4.3-0.3,7.5c-0.4,3-0.8,5.5-1.4,7.6c-0.1,0.4-0.2,0.6-0.1,0.7c0,0.1,0.2,0.2,0.5,0.3
			c0.8,0.2,1.4,0.3,1.7,0.3c0.5-0.1,0.8-0.5,1-1.3c1.7-6.5,4.1-11.9,7.2-16.2c0.3-0.4,0.6-0.7,0.8-0.7c0.3,0,0.5,0.3,0.6,0.9
			c0.4,1.6,0.4,4,0.1,7.2c-0.3,3-0.7,5.6-1.4,7.7c-0.1,0.4-0.2,0.6-0.2,0.7c0,0.2,0.4,0.4,1,0.6c0.6,0.1,1,0.2,1.2,0.1
			c0.3-0.1,0.6-0.3,0.7-0.8c0.1-0.7,0.3-1.4,0.4-2.1c1-2.8,1.8-4.9,2.5-6.4c0-0.1,0-0.2,0-0.3c0-0.3-0.2-0.4-0.4-0.4
			c-0.1,0-0.2,0.1-0.3,0.3c-0.5,1-0.9,1.8-1.3,2.4c0.2-1.1,0.3-2.6,0.4-4.6c0.1-2.4,0.1-4.1-0.1-5.1c-0.2-1-0.9-1.6-2.2-1.8
			c-0.5-0.3-0.8-0.4-1-0.3c-0.2,0-0.5,0.2-0.9,0.5c-0.8,0.6-2,2.2-3.5,4.9c-1.5,2.7-2.6,5-3.3,7.1c0.8-4.5,1.1-7.6,1-9.2
			c0-0.8-0.7-1.2-2-1.4c-0.4-0.5-0.7-0.7-1.1-0.6c-0.2,0-0.4,0.2-0.6,0.5c-0.8,1.4-1.5,2.5-2,3.5c-0.1,0.2-0.2,0.3-0.2,0.4
			C204.5,126.9,204.6,126.9,204.8,126.9z"/>
		<path id="XMLID_258_" class="st0" d="M198.3,120.2c0.4,0.2,0.8,0.3,1.2,0.3c0.8,0,1.6-0.3,2.3-1c1.1-1.1,1.6-1.9,1.6-2.3
			c0-0.2-0.2-0.4-0.5-0.5c-1-0.5-1.6-0.7-1.9-0.7c-0.1,0-0.4,0.3-0.6,0.7c-0.3,0.6-1.1,1.6-2.3,3c-0.1,0-0.2,0-0.3,0.1
			c0,0.1,0,0.1,0.1,0.2C198,120.1,198.1,120.2,198.3,120.2z"/>
		<path id="XMLID_257_" class="st0" d="M196.6,128.3l1.2-1.5c0.3-0.4,0.5-0.6,0.6-0.6c0.2,0,0.3,0.3,0.4,1c0.1,1.6,0,4-0.4,7.4
			c-0.4,3.5-0.9,6-1.5,7.5c-0.1,0.3-0.2,0.5-0.1,0.6c0,0.1,0.2,0.2,0.7,0.4c0.7,0.2,1.2,0.3,1.5,0.3s0.6-0.3,0.6-0.6
			c0.2-1.2,0.7-2.5,1.3-4.1c0.9-2.1,1.3-3.2,1.4-3.3c0.1-0.4,0-0.6-0.2-0.6c-0.1,0-0.2,0.1-0.3,0.3c-0.6,1.1-1.1,1.9-1.4,2.4
			c0.7-4.9,1.1-8.4,1.1-10.4c0-0.3,0-0.7-0.1-0.9c-0.1-0.6-0.3-0.9-0.7-1.1c-0.1,0-0.5-0.1-1.2-0.1c-0.5-0.2-0.9-0.4-1.1-0.3
			c-0.2,0-0.4,0.2-0.6,0.5c-0.6,1-1.2,2-1.8,3.1c-0.1,0.2-0.1,0.4-0.1,0.5C195.9,128.9,196.2,128.9,196.6,128.3z"/>
		<path id="XMLID_256_" class="st0" d="M192.5,172.4c-0.2,0-0.5,0.2-0.9,0.5c-0.8,0.6-2,2.2-3.5,4.9c-1.5,2.7-2.6,5-3.3,7.1
			c0.8-4.5,1.1-7.6,1-9.2c0-0.8-0.7-1.2-2-1.4c-0.4-0.5-0.7-0.7-1.1-0.6c-0.2,0-0.4,0.2-0.6,0.5c-0.8,1.4-1.5,2.5-2,3.5
			c-0.1,0.2-0.2,0.3-0.2,0.4c0,0.2,0.1,0.2,0.4,0.2c0.2,0,0.3-0.1,0.4-0.3c0.6-0.8,1.1-1.4,1.4-1.8c0.3-0.5,0.5-0.7,0.5-0.7
			c0.1,0,0.1,0.3,0.2,0.8c0.2,1.8,0.1,4.3-0.3,7.5c-0.4,3-0.8,5.5-1.4,7.6c-0.1,0.4-0.2,0.6-0.1,0.7c0,0.1,0.2,0.2,0.5,0.3
			c0.8,0.2,1.4,0.3,1.7,0.3c0.5-0.1,0.8-0.5,1-1.3c1.7-6.5,4.1-11.9,7.2-16.2c0.3-0.4,0.6-0.7,0.8-0.7c0.3,0,0.5,0.3,0.6,0.9
			c0.4,1.6,0.4,4,0.1,7.2c-0.3,3-0.7,5.6-1.4,7.7c-0.1,0.4-0.2,0.6-0.2,0.7c0,0.2,0.4,0.4,1,0.6c0.6,0.1,1,0.2,1.2,0.1
			c0.3-0.1,0.6-0.3,0.7-0.8c0.1-0.7,0.3-1.4,0.4-2.1c1-2.8,1.8-4.9,2.5-6.4c0-0.1,0-0.2,0-0.3c0-0.3-0.2-0.4-0.4-0.4
			c-0.1,0-0.2,0.1-0.3,0.3c-0.5,1-0.9,1.8-1.3,2.4c0.2-1.1,0.3-2.6,0.4-4.6c0.1-2.4,0.1-4.1-0.1-5.1c-0.2-1-0.9-1.6-2.2-1.8
			C193,172.5,192.7,172.4,192.5,172.4z"/>
		<path id="XMLID_255_" class="st0" d="M178.3,143.6c0,0.2,0,0.4,0,0.6c0.1,0.8,0.6,1.4,1.5,1.8c0.6,0.3,1.1,0.5,1.3,0.4
			c0.3-0.1,0.8-0.3,1.3-0.9c0.8-0.7,1.9-2.4,3.5-4.9c1.8-2.9,3.2-5.5,4.1-7.8c-0.5,2.6-0.8,5.9-0.8,9.7c0,0.5,0.1,0.8,0.2,1
			c0.1,0.2,0.4,0.4,0.8,0.6c0.8,0.4,1.3,0.5,1.5,0.5c0.3,0,0.4-0.4,0.5-1c0.1-2.2,0.7-4.4,1.7-6.7c0.1-0.2,0.1-0.4,0.1-0.5
			c0-0.2-0.2-0.3-0.4-0.3c-0.2,0-0.4,0.2-0.6,0.5c-0.1,0.1-0.3,0.4-0.6,0.9c-0.3,0.5-0.5,0.9-0.7,1.1c0.1-2.6,0.5-6,1.2-9.9
			c0.1-0.5,0.1-0.8,0-1c-0.1-0.2-0.3-0.4-0.7-0.6c-0.9-0.5-1.5-0.7-1.7-0.7c-0.2,0-0.4,0.4-0.5,1.1c-0.1,0.4-0.2,1.1-0.4,2.1
			c-0.3,1.4-1.3,3.5-2.8,6.3c-1.5,2.8-2.9,5.1-4.3,7c-0.6,0.8-1.1,1.3-1.6,1.3c-0.3,0-0.5-0.1-0.5-0.5c0-0.1,0-0.2,0-0.3
			c0-2.4,0.7-5.3,2.2-8.6c1.3-2.8,2.5-4.9,3.7-6.1c0.6-0.6,1.4-0.7,2.5-0.5c0.1,0,0.2,0,0.3,0c0.3-0.1,0.4-0.2,0.4-0.4
			c0-0.1-0.1-0.2-0.3-0.3c-1.7-1.1-2.8-1.7-3.4-1.6c-0.5,0.1-1.1,0.5-1.7,1.3c-1.8,2.3-3.3,5.1-4.5,8.3
			C178.7,138.7,178.2,141.4,178.3,143.6z"/>
		<path id="XMLID_252_" class="st0" d="M115.5,152.3c0.2,1.4,0.8,2.4,1.9,3.1c1,0.6,2.2,0.9,3.6,0.7c0.7,0.1,1.3,0.1,1.8,0
			c1.1-0.2,2.1-0.9,2.9-2c1.4-2.2,2.4-5.1,2.7-8.7c0.2-2.3,0.3-4.1,0.1-5.4c-0.1-0.8-0.4-1.5-1-2.1c-0.9-1-1.6-1.4-2.2-1.3
			c-0.3,0-0.6,0.2-1.1,0.4c-0.9,0.6-1.5,0.9-1.8,1.1c-1.3-0.8-2.2-1.2-2.7-1.1c-0.4,0.1-0.8,0.5-1.3,1.2c-1,1.5-1.8,3.9-2.4,7.2
			C115.5,148.5,115.3,150.7,115.5,152.3z M118.2,149.9c0-1.3,0.2-2.7,0.5-4.4c0.4-2.1,1-3.7,1.6-4.9c0.2,0.3,0.3,0.4,0.4,0.4
			c0.1,0,0.3-0.1,0.6-0.4l3.2-2c0.2-0.1,0.4-0.2,0.6-0.2c0.4-0.1,0.6,0.2,0.7,0.8c0,0.3,0.1,0.9,0.2,1.9c0.2,2.4-0.1,4.8-0.7,7.4
			c-0.7,2.7-1.5,4.6-2.6,5.6c-0.6,0.5-1.1,0.9-1.7,1c-1.4,0.3-2.3-0.7-2.7-3C118.2,151.5,118.1,150.7,118.2,149.9z"/>
		<path id="XMLID_251_" class="st0" d="M74.4,139c0.3-0.1,0.6-0.3,0.9-0.7c0.5-0.7,0.9-1.5,1.4-2.2c0.5-0.7,1.1-1.1,1.6-1.2
			c0.4-0.1,0.8,0,1.3,0.2c2.9,1.1,5.6,3.5,8.1,7.2c-0.9,5.3-2.3,10.5-4.3,15.5c-1.1,1-2.1,2-3,3c-0.2,0.3-0.3,0.5-0.3,0.7
			c0,0.2,0.2,0.4,0.6,0.6c1.2,0.7,2,1,2.6,1c0.4-0.1,0.5-0.3,0.6-0.8c0.8-1.6,2-2.6,3.5-3c0.7-0.2,1.1-0.5,1-0.8
			c-0.1-0.4-0.7-1.1-2-2.1c1.1-3.6,2.1-7.5,3-11.8c3.3,4.6,5.8,8.6,7.3,12c-0.3,0.9-0.4,1.4-0.4,1.6c0,0.3,0.3,0.7,0.7,1.1
			c0.9,1.1,1.4,1.6,1.6,1.6c0.2,0,0.5-0.3,0.9-0.9c0.8-1.1,1.2-1.9,1.1-2.5c-0.1-0.5-0.3-1.1-0.8-2c1.1-3.4,2.5-7.1,4.1-10.9
			c1.7-3.9,3.1-6.9,4.4-9c-0.3,0.9-0.6,3.7-0.8,8.5c-0.2,4.2-0.3,7.9-0.3,11.2c0,0.7,0.1,1.1,0.2,1.3c0.1,0.2,0.4,0.5,1,0.7
			c1.1,0.6,2,0.9,2.5,0.8c0.4-0.1,0.7-0.4,0.7-1.1c0.1-3,0.3-5.3,0.7-6.9c0.1-0.3,0.1-0.5,0.1-0.6c-0.1-0.4-0.2-0.5-0.5-0.5
			c-0.2,0-0.4,0.2-0.5,0.6c-0.4,1.2-0.7,2.1-0.9,2.8c-0.5-8.5,0.2-15.7,2.2-21.8c0.5-1.5,1.1-2.3,1.8-2.4c0.1,0,0.2,0,0.4,0
			c0.2,0,0.3,0,0.4,0c0.5-0.1,0.7-0.3,0.6-0.6c0-0.1-0.1-0.2-0.2-0.3c-2-1.1-3.3-1.6-4-1.5c-0.5,0.1-0.8,0.4-1,0.9
			c-0.6,1.3-1,2.5-1.3,3.8c-3.4,5.6-6.9,13.1-10.7,22.6c-2-3.9-4.8-8.2-8.2-12.8c0.7-3.9,1-6.3,0.9-7.1c-0.1-0.6-0.3-1-0.5-1.1
			c-0.9-0.5-1.5-0.7-1.7-0.7c-0.2,0-0.3,0.5-0.2,1.3c0.3,1.6,0.1,3.4-0.4,5.4c-4.3-4.7-7.6-6.9-9.7-6.6c-1.8,0.2-3.4,2.5-4.7,6.8
			c-0.1,0.2-0.1,0.4-0.1,0.5C73.9,138.9,74.1,139,74.4,139z"/>
		<path id="XMLID_250_" class="st0" d="M146.3,184.2c-0.3,1.4-1.3,3.5-2.8,6.3c-1.5,2.8-2.9,5.1-4.3,7c-0.6,0.8-1.1,1.3-1.6,1.3
			c-0.3,0-0.5-0.1-0.5-0.5c0-0.1,0-0.2,0-0.3c0-2.4,0.7-5.3,2.2-8.6c1.3-2.8,2.5-4.9,3.7-6.1c0.6-0.6,1.4-0.7,2.5-0.5
			c0.1,0,0.2,0,0.3,0c0.3-0.1,0.4-0.2,0.4-0.4c0-0.1-0.1-0.2-0.3-0.3c-1.7-1.1-2.8-1.7-3.4-1.6c-0.5,0.1-1.1,0.5-1.7,1.3
			c-1.8,2.3-3.3,5.1-4.5,8.3c-1.2,3.2-1.7,5.9-1.6,8.1c0,0.2,0,0.4,0,0.6c0.1,0.8,0.6,1.4,1.5,1.8c0.6,0.3,1.1,0.5,1.3,0.4
			c0.3-0.1,0.8-0.3,1.3-0.9c0.8-0.7,1.9-2.4,3.5-4.9c1.8-2.9,3.2-5.5,4.1-7.8c-0.5,2.6-0.8,5.9-0.8,9.7c0,0.5,0.1,0.8,0.2,1
			c0.1,0.2,0.4,0.4,0.8,0.6c0.8,0.4,1.3,0.5,1.5,0.5c0.3,0,0.4-0.4,0.5-1c0.1-2.2,0.7-4.4,1.7-6.7c0.1-0.2,0.1-0.4,0.1-0.5
			c0-0.2-0.2-0.3-0.4-0.3c-0.2,0-0.4,0.2-0.6,0.5c-0.1,0.1-0.3,0.4-0.6,0.9c-0.3,0.5-0.5,0.9-0.7,1.1c0.1-2.6,0.5-6,1.2-9.9
			c0.1-0.5,0.1-0.8,0-1c-0.1-0.2-0.3-0.4-0.7-0.6c-0.9-0.5-1.5-0.7-1.7-0.7c-0.2,0-0.4,0.4-0.5,1.1
			C146.7,182.4,146.6,183.2,146.3,184.2z"/>
		<path id="XMLID_249_" class="st0" d="M131.8,142.2c0.1,0.1,0.3,0,0.4-0.2c0.4-0.5,0.7-1,1-1.2c-0.7,3-0.9,6.6-0.6,10.9
			c0,0.2,0,0.4,0,0.5c0.1,0.9,0.7,1.3,1.8,1.3c0.6,0.2,1.1,0.3,1.5,0.3c0.5-0.1,0.9-0.4,1.3-1c1.6-2.5,3.4-6.3,5.5-11.5
			c-0.5,2.5-0.8,5.4-0.8,8.8c0,0.9,0.2,1.4,0.8,1.7c1,0.4,1.6,0.6,1.9,0.6c0.3,0,0.5-0.5,0.5-1.2c0.1-1.2,0.4-3,1-5.3
			c0-0.1,0-0.2,0-0.3c0-0.3-0.2-0.4-0.4-0.4c-0.2,0-0.3,0.2-0.3,0.4c-0.4,1.2-0.8,2.2-1,3c0.2-5.1,0.9-9.6,2.3-13.6
			c0-0.1,0.1-0.2,0.2-0.3c0.1-0.1,0.1-0.2,0.1-0.2c0-0.1-0.4-0.3-1-0.5c-0.6-0.2-1.1-0.3-1.3-0.3c-0.2,0-0.4,0.2-0.7,0.4
			c-0.4,0.3-0.8,1.3-1.2,2.9c-0.2,1-1.1,3.1-2.5,6.4c-1.6,3.7-2.9,6.3-3.8,7.7c-0.4,0.6-0.8,1-1,1c-0.3,0-0.5-0.3-0.6-0.9
			c-0.3-1.9-0.3-4.5,0.1-7.7c0.4-3,0.8-5.1,1.4-6.3l0.4-0.8c0-0.1-0.1-0.2-0.4-0.3c-0.8-0.3-1.5-0.5-1.9-0.4c-0.3,0-0.5,0.3-0.8,0.6
			c-0.4,0.7-0.7,1.7-1,2.9c-0.1,0.4-0.4,1.2-1,2.5C131.6,141.9,131.6,142.1,131.8,142.2z"/>
		<path id="XMLID_248_" class="st0" d="M126.1,171.5c-0.8-0.4-1.4-0.5-1.9-0.3c-1.4,0.3-3,2-4.9,5c-1.9,3.1-3.4,6.6-4.4,10.4
			c-1.2,4.4-1.5,8.4-0.9,12c0.4,2.2,2.1,3.6,5.1,4.2c0.8,0.7,1.8,1,3,0.8c0.6-0.1,1.2-0.3,1.9-0.6c2.1-0.9,4.6-2.9,7.3-5.7
			c0.9-0.9,1.4-1.5,1.6-1.8c0.3-0.5,0.5-1,0.4-1.5c-0.1-0.5-0.5-1.4-1.3-2.6c-0.1-0.2-0.3-0.4-0.5-0.3c-0.3,0-0.4,0.2-0.4,0.6
			c0,0.6-0.1,1.2-0.4,1.6c-1,1.5-2.2,2.9-3.8,4.4c-1.6,1.6-3.1,2.7-4.5,3.4c-0.5,0.3-1,0.4-1.5,0.5c-0.8,0.1-1.5,0-2.2-0.4
			c-0.9-0.6-1.5-1.5-1.8-2.9c-0.5-2.4-0.3-5.6,0.6-9.4c0.8-3.7,2-7,3.5-9.9c1.6-3.1,3.2-4.7,4.8-5c0.7-0.1,1.6,0.1,2.5,0.7
			c0.2,2.8-0.2,5.2-1.1,7.4c-0.3,0.1-0.4,0.3-0.4,0.5c0.1,0.5,0.7,0.8,1.9,0.9c0.2,0,0.5,0,0.6,0c0.4-0.1,0.8-0.5,1.1-1.3
			c0.7-1.7,1.1-4.1,1.4-7.1c0-0.7,0.1-1.2,0-1.4c-0.1-0.4-0.4-0.7-1-1.1c-0.9-0.5-1.6-0.7-2-0.7c-0.3,0.1-0.5,0.4-0.5,1
			C127,172,126.2,171.5,126.1,171.5z"/>
		<path id="XMLID_247_" class="st1" d="M120.9,155.1c0.6-0.1,1.1-0.4,1.7-1c1.1-1,2-2.9,2.6-5.6c0.6-2.5,0.9-5,0.7-7.4
			c-0.1-1-0.1-1.6-0.2-1.9c-0.1-0.6-0.3-0.9-0.7-0.8c-0.1,0-0.3,0.1-0.6,0.2l-3.2,2c-0.4,0.2-0.6,0.3-0.6,0.4
			c-0.1,0-0.3-0.1-0.4-0.4c-0.7,1.2-1.2,2.8-1.6,4.9c-0.3,1.6-0.5,3.1-0.5,4.4c0,0.9,0,1.6,0.1,2.3
			C118.7,154.4,119.5,155.4,120.9,155.1z"/>
		<path id="XMLID_226_" class="st1" d="M255.7,92.1c-0.8-2.2-1.9-4.5-1.9-4.5c-1.6-3.7-3.6-8.1-6.6-13.2c-2.3-3.9-4.4-6.6-5.6-8.2
			c-2.7-3.5-6.4-7.9-11.4-12.5c3.7,4.5-0.6,13.8-2.1,19.7c3.3,5.9-7.2,1.1-7.2,1.2c1.2,2-1.4,0.5-3.5-0.5c-1-0.5,2.1,9.6-0.9,7.6
			l-4.4,2.6c-1.7-1-0.7,0.2-8.8-0.8l-8.6,3.2l-15.4-0.8l-13.2-6l-9.1,8.2l-2.9,5.7l-5.5,3l-8.1-12.7L126,76.9l-10.2,19l-13.9,2
			l-14.5,8.6l-1,0.1l-12.6-7l-5.2,4.7l-6.1-2.3c-2.7-2.9-22.2,8.8-24.8,5.8c-0.6,7.2-0.8-2,0.2,25.9c1.9,51.7,45,114.3,112.8,114.3
			c62.3,0,112.8-51.2,112.8-114.3C263.5,119,260.7,105,255.7,92.1z M204.6,126.3c0.5-0.9,1.2-2.1,2-3.5c0.2-0.3,0.4-0.5,0.6-0.5
			c0.4-0.1,0.7,0.1,1.1,0.6c1.3,0.2,1.9,0.6,2,1.4c0.1,1.7-0.2,4.7-1,9.2c0.7-2.1,1.8-4.4,3.3-7.1c1.5-2.7,2.7-4.3,3.5-4.9
			c0.4-0.3,0.7-0.4,0.9-0.5c0.2,0,0.5,0.1,1,0.3c1.3,0.2,2,0.8,2.2,1.8c0.2,1,0.2,2.7,0.1,5.1c-0.1,2-0.2,3.5-0.4,4.6
			c0.3-0.6,0.8-1.4,1.3-2.4c0.1-0.2,0.2-0.3,0.3-0.3c0.2,0,0.4,0.1,0.4,0.4c0,0.1,0,0.2,0,0.3c-0.7,1.5-1.5,3.6-2.5,6.4
			c-0.2,0.7-0.3,1.4-0.4,2.1c-0.1,0.5-0.4,0.8-0.7,0.8c-0.3,0-0.7,0-1.2-0.1c-0.6-0.1-0.9-0.3-1-0.6c0-0.1,0-0.3,0.2-0.7
			c0.6-2.1,1.1-4.7,1.4-7.7c0.3-3.2,0.3-5.6-0.1-7.2c-0.1-0.6-0.3-0.9-0.6-0.9c-0.2,0-0.4,0.3-0.8,0.7c-3.1,4.3-5.5,9.6-7.2,16.2
			c-0.2,0.8-0.6,1.3-1,1.3c-0.3,0.1-0.9,0-1.7-0.3c-0.3-0.1-0.5-0.2-0.5-0.3c0-0.1,0-0.3,0.1-0.7c0.5-2,1-4.5,1.4-7.6
			c0.4-3.3,0.5-5.8,0.3-7.5c-0.1-0.5-0.1-0.8-0.2-0.8c0,0-0.2,0.2-0.5,0.7c-0.3,0.5-0.8,1.1-1.4,1.8c-0.1,0.2-0.2,0.2-0.4,0.3
			c-0.2,0-0.3,0-0.4-0.2C204.5,126.6,204.5,126.4,204.6,126.3z M198.2,119.7c1.2-1.4,1.9-2.4,2.3-3c0.3-0.4,0.5-0.7,0.6-0.7
			c0.3,0,0.9,0.2,1.9,0.7c0.3,0.1,0.4,0.3,0.5,0.5c0.1,0.4-0.5,1.2-1.6,2.3c-0.7,0.7-1.5,1.1-2.3,1c-0.5,0-0.9-0.1-1.2-0.3
			c-0.1-0.1-0.2-0.2-0.3-0.2c-0.1-0.1-0.1-0.2-0.1-0.2C197.9,119.7,198,119.7,198.2,119.7z M196,128.1c0.5-1.1,1.1-2.1,1.8-3.1
			c0.2-0.3,0.4-0.5,0.6-0.5c0.2,0,0.6,0.1,1.1,0.3c0.7,0.1,1.1,0.1,1.2,0.1c0.4,0.2,0.6,0.5,0.7,1.1c0,0.3,0.1,0.6,0.1,0.9
			c0,2.1-0.4,5.5-1.1,10.4c0.4-0.5,0.8-1.3,1.4-2.4c0.1-0.2,0.2-0.2,0.3-0.3c0.2,0,0.3,0.2,0.2,0.6c0,0.2-0.5,1.3-1.4,3.3
			c-0.7,1.6-1.1,2.9-1.3,4.1c-0.1,0.4-0.3,0.6-0.6,0.6s-0.9,0-1.5-0.3c-0.4-0.1-0.6-0.3-0.7-0.4c0-0.1,0-0.3,0.1-0.6
			c0.6-1.5,1.1-4,1.5-7.5c0.4-3.3,0.5-5.8,0.4-7.4c-0.1-0.7-0.2-1-0.4-1c-0.1,0-0.3,0.2-0.6,0.6l-1.2,1.5c-0.4,0.5-0.7,0.6-0.7,0.2
			C195.8,128.4,195.9,128.3,196,128.1z M195.6,174.6c0.2,1,0.2,2.7,0.1,5.1c-0.1,2-0.2,3.5-0.4,4.6c0.3-0.6,0.8-1.4,1.3-2.4
			c0.1-0.2,0.2-0.3,0.3-0.3c0.2,0,0.4,0.1,0.4,0.4c0,0.1,0,0.2,0,0.3c-0.7,1.5-1.5,3.6-2.5,6.4c-0.2,0.7-0.3,1.4-0.4,2.1
			c-0.1,0.5-0.4,0.8-0.7,0.8c-0.3,0-0.7,0-1.2-0.1c-0.6-0.1-0.9-0.3-1-0.6c0-0.1,0-0.3,0.2-0.7c0.6-2.1,1.1-4.7,1.4-7.7
			c0.3-3.2,0.3-5.6-0.1-7.2c-0.1-0.6-0.3-0.9-0.6-0.9c-0.2,0-0.4,0.3-0.8,0.7c-3.1,4.3-5.5,9.6-7.2,16.2c-0.2,0.8-0.6,1.3-1,1.3
			c-0.3,0.1-0.9,0-1.7-0.3c-0.3-0.1-0.5-0.2-0.5-0.3c0-0.1,0-0.3,0.1-0.7c0.5-2,1-4.5,1.4-7.6c0.4-3.3,0.5-5.8,0.3-7.5
			c-0.1-0.5-0.1-0.8-0.2-0.8c0,0-0.2,0.2-0.5,0.7c-0.3,0.5-0.8,1.1-1.4,1.8c-0.1,0.2-0.2,0.2-0.4,0.3c-0.2,0-0.3,0-0.4-0.2
			c0-0.1,0-0.3,0.2-0.4c0.5-0.9,1.2-2.1,2-3.5c0.2-0.3,0.4-0.5,0.6-0.5c0.4-0.1,0.7,0.1,1.1,0.6c1.3,0.2,1.9,0.6,2,1.4
			c0.1,1.7-0.2,4.7-1,9.2c0.7-2.1,1.8-4.4,3.3-7.1c1.5-2.7,2.7-4.3,3.5-4.9c0.4-0.3,0.7-0.4,0.9-0.5c0.2,0,0.5,0.1,1,0.3
			C194.8,173,195.5,173.6,195.6,174.6z M179.9,135.5c1.2-3.2,2.7-5.9,4.5-8.3c0.6-0.8,1.2-1.2,1.7-1.3c0.5-0.1,1.7,0.5,3.4,1.6
			c0.2,0.1,0.2,0.2,0.3,0.3c0,0.2-0.1,0.4-0.4,0.4c-0.1,0-0.2,0-0.3,0c-1.1-0.3-2-0.1-2.5,0.5c-1.2,1.2-2.5,3.3-3.7,6.1
			c-1.5,3.3-2.2,6.1-2.2,8.6c0,0.1,0,0.2,0,0.3c0.1,0.4,0.2,0.5,0.5,0.5c0.5-0.1,1-0.5,1.6-1.3c1.4-1.9,2.8-4.2,4.3-7
			c1.5-2.8,2.4-5,2.8-6.3c0.2-1,0.4-1.7,0.4-2.1c0.1-0.7,0.2-1.1,0.5-1.1c0.2,0,0.8,0.2,1.7,0.7c0.4,0.2,0.6,0.4,0.7,0.6
			c0.1,0.2,0,0.5,0,1c-0.7,4-1.1,7.3-1.2,9.9c0.2-0.2,0.4-0.6,0.7-1.1c0.3-0.5,0.5-0.8,0.6-0.9c0.2-0.3,0.4-0.5,0.6-0.5
			c0.2,0,0.4,0.1,0.4,0.3c0,0.1,0,0.3-0.1,0.5c-1,2.3-1.6,4.5-1.7,6.7c0,0.6-0.2,0.9-0.5,1c-0.3,0-0.8-0.1-1.5-0.5
			c-0.4-0.2-0.7-0.4-0.8-0.6c-0.1-0.1-0.2-0.5-0.2-1c0-3.9,0.3-7.1,0.8-9.7c-0.9,2.3-2.3,4.9-4.1,7.8c-1.6,2.5-2.7,4.2-3.5,4.9
			c-0.5,0.5-1,0.8-1.3,0.9c-0.3,0-0.7-0.1-1.3-0.4c-0.9-0.3-1.4-0.9-1.5-1.8c0-0.2,0-0.3,0-0.6C178.2,141.4,178.7,138.7,179.9,135.5
			z M174.3,178.6c-0.1-0.7-0.2-1-0.4-1c-0.1,0-0.3,0.2-0.6,0.6l-1.2,1.5c-0.4,0.5-0.7,0.6-0.7,0.2c0-0.1,0-0.3,0.1-0.5
			c0.5-1.1,1.1-2.1,1.8-3.1c0.2-0.3,0.4-0.5,0.6-0.5c0.2,0,0.6,0.1,1.1,0.3c0.7,0.1,1.1,0.1,1.2,0.1c0.4,0.2,0.6,0.5,0.7,1.1
			c0,0.3,0.1,0.6,0.1,0.9c0,2.1-0.4,5.5-1.1,10.4c0.4-0.5,0.8-1.3,1.4-2.4c0.1-0.2,0.2-0.2,0.3-0.3c0.2,0,0.3,0.2,0.2,0.6
			c0,0.2-0.5,1.3-1.4,3.3c-0.7,1.6-1.1,2.9-1.3,4.1c-0.1,0.4-0.3,0.6-0.6,0.6c-0.4,0.1-0.9,0-1.5-0.3c-0.4-0.1-0.6-0.3-0.7-0.4
			c0-0.1,0-0.3,0.1-0.6c0.6-1.5,1.1-4,1.5-7.5C174.3,182.6,174.4,180.2,174.3,178.6z M177.4,170.9c-0.7,0.7-1.5,1.1-2.3,1
			c-0.5,0-0.9-0.1-1.2-0.3c-0.1-0.1-0.2-0.2-0.3-0.2c-0.1-0.1-0.1-0.2-0.1-0.2c0-0.1,0.1-0.1,0.3-0.1c1.2-1.4,1.9-2.4,2.3-3
			c0.3-0.4,0.5-0.7,0.6-0.7c0.3,0,0.9,0.2,1.9,0.7c0.3,0.1,0.4,0.3,0.5,0.5C179,169,178.5,169.8,177.4,170.9z M168.2,130.2
			c0.3-0.1,0.8-0.4,1.6-0.8c0.5-0.2,0.9-0.5,1.3-0.9c0.8-5.2,1.5-8.5,2.1-10.1c0.4-0.9,0.9-1.4,1.5-1.5c0.6-0.1,1.4,0.1,2.6,0.5
			c0.5,0.2,0.7,0.4,0.7,0.7c0,0.2-0.1,0.3-0.4,0.4c-0.1,0-0.2,0-0.3,0c-0.1,0-0.2,0-0.3,0c-0.6,0.1-1.1,0.8-1.7,2.2
			c-0.5,1.2-1.1,3.8-1.8,7.6c-0.1,0.3-0.1,0.5,0,0.6c0.1,0.1,0.3,0.1,0.6,0.1c0.9-0.1,2-0.3,3.5-0.7c0.5-0.1,0.8,0,0.9,0.5
			c0.1,0.3-0.1,0.6-0.5,0.7c-0.3,0.1-1.9,0.5-4.8,1.2c-0.9,5.5-1.3,10-1,13.7c0,0.2,0,0.4,0.1,0.5c0.1,0.5,0.3,0.7,0.5,0.7
			c0.4-0.1,1.4-1.2,3.1-3.5c0.2-0.3,0.4-0.4,0.6-0.5c0.2,0,0.3,0,0.4,0.2c0.1,0.2,0,0.4-0.1,0.7c-0.9,1.8-1.9,3.3-2.9,4.6
			c-0.4,0.5-0.8,0.8-1.1,0.9c-0.3,0.1-0.9-0.1-1.6-0.5c-0.9-0.1-1.4-0.5-1.5-1.1c0-0.1,0-0.2,0-0.4c-0.1-3.9,0.2-8.8,0.9-14.6
			c-0.8,0-1.5,0-2.2,0c-0.3,0-0.5-0.2-0.5-0.5C167.8,130.5,167.9,130.3,168.2,130.2z M166.2,160.2c0.2,0.1,0.3,0.2,0.3,0.4
			c0,0.3-0.1,0.5-0.5,0.5c-0.1,0-0.3,0-0.4-0.1c-0.7-0.2-1.3-0.3-1.6-0.3c-0.9,0.2-1.8,1.2-2.6,3.2c-2.9,7.1-4.4,16.1-4.4,26.9
			c1.1-2.9,1.9-4.9,2.5-6.1c1.2-2.5,2.5-4.6,3.9-6.4c0.7-0.9,1.3-1.3,2-1.4c0.3-0.1,0.9,0.1,1.6,0.4c1.4,0.4,2.2,1.2,2.3,2.5
			c0.2,2.9,0,5.8-0.7,8.8c-0.7,2.9-1.7,5.2-3,7c-0.4,0.5-0.8,0.8-1.3,0.9c-1,0.2-2.5-0.7-4.5-2.6c-0.2-0.2-0.4-0.4-0.4-0.6
			c0-0.2,0.1-0.4,0.3-0.4c0.3,0,0.5,0,0.8,0.2c1,0.6,1.8,0.8,2.4,0.7c0.6-0.1,1.1-0.6,1.6-1.4c0.8-1.5,1.4-3.4,1.9-5.8
			c0.5-2.7,0.6-5,0.3-7c-0.1-0.8-0.5-1.1-1-1c-0.3,0-0.6,0.3-0.9,0.6c-1.6,1.9-3,4.4-4.4,7.6c-1.5,3.4-2.4,6.6-2.8,9.6
			c-0.1,0.6-0.2,0.9-0.5,0.9c-0.1,0-0.3,0-0.5-0.1c-0.8-0.4-1.3-0.6-1.4-0.7c-0.3-0.2-0.6-0.6-0.6-1.1c0-0.2-0.1-0.5,0-0.9
			c0.2-9.7,1-18.1,2.6-25.1c1.2-5.3,2.5-8.9,3.9-10.6c0.4-0.5,0.7-0.7,1.1-0.8c0.4-0.1,1,0.1,1.7,0.5
			C164.5,159.2,165.4,159.7,166.2,160.2z M148.7,135.6c0.5-0.9,1.2-2.1,2-3.5c0.2-0.3,0.4-0.5,0.6-0.5c0.4-0.1,0.7,0.1,1.1,0.6
			c1.3,0.2,1.9,0.6,2,1.4c0.1,1.7-0.2,4.7-1,9.2c0.7-2.1,1.8-4.4,3.3-7.1c1.5-2.7,2.7-4.3,3.5-4.9c0.4-0.3,0.7-0.4,0.9-0.5
			c0.2,0,0.5,0.1,1,0.3c1.3,0.2,2,0.8,2.2,1.8c0.2,1,0.2,2.7,0.1,5.1c-0.1,2-0.2,3.5-0.4,4.6c0.3-0.6,0.8-1.4,1.3-2.4
			c0.1-0.2,0.2-0.3,0.3-0.3c0.2,0,0.4,0.1,0.4,0.4c0,0.1,0,0.2,0,0.3c-0.7,1.5-1.5,3.6-2.5,6.4c-0.2,0.7-0.3,1.4-0.4,2.1
			c-0.1,0.5-0.4,0.8-0.7,0.8c-0.3,0-0.7,0-1.2-0.1c-0.6-0.1-0.9-0.3-1-0.6c0-0.1,0-0.3,0.2-0.7c0.6-2.1,1.1-4.7,1.4-7.7
			c0.3-3.2,0.3-5.6-0.1-7.2c-0.1-0.6-0.3-0.9-0.6-0.9c-0.2,0-0.4,0.3-0.8,0.7c-3.1,4.3-5.5,9.6-7.2,16.2c-0.2,0.8-0.6,1.3-1,1.3
			c-0.3,0.1-0.9,0-1.7-0.3c-0.3-0.1-0.5-0.2-0.5-0.3c0-0.1,0-0.3,0.1-0.7c0.5-2,1-4.5,1.4-7.6c0.4-3.3,0.5-5.8,0.3-7.5
			c-0.1-0.5-0.1-0.8-0.2-0.8c0,0-0.2,0.2-0.5,0.7c-0.3,0.5-0.8,1.1-1.4,1.8c-0.1,0.2-0.2,0.2-0.4,0.3c-0.2,0-0.3,0-0.4-0.2
			C148.5,135.9,148.6,135.7,148.7,135.6z M147.2,180.9c0.2,0,0.8,0.2,1.7,0.7c0.4,0.2,0.6,0.4,0.7,0.6c0.1,0.2,0,0.5,0,1
			c-0.7,4-1.1,7.3-1.2,9.9c0.2-0.2,0.4-0.6,0.7-1.1c0.3-0.5,0.5-0.8,0.6-0.9c0.2-0.3,0.4-0.5,0.6-0.5c0.2,0,0.4,0.1,0.4,0.3
			c0,0.1,0,0.3-0.1,0.5c-1,2.3-1.6,4.5-1.7,6.7c0,0.6-0.2,0.9-0.5,1c-0.3,0-0.8-0.1-1.5-0.5c-0.4-0.2-0.7-0.4-0.8-0.6
			c-0.1-0.2-0.2-0.5-0.2-1c0-3.9,0.3-7.1,0.8-9.7c-0.9,2.3-2.3,4.9-4.1,7.8c-1.6,2.5-2.7,4.2-3.5,4.9c-0.5,0.5-1,0.8-1.3,0.9
			c-0.3,0-0.7-0.1-1.3-0.4c-0.9-0.3-1.4-0.9-1.5-1.8c0-0.2,0-0.3,0-0.6c-0.1-2.2,0.4-4.9,1.6-8.1c1.2-3.2,2.7-5.9,4.5-8.3
			c0.6-0.8,1.2-1.2,1.7-1.3c0.5-0.1,1.7,0.5,3.4,1.6c0.2,0.1,0.2,0.2,0.3,0.3c0,0.2-0.1,0.4-0.4,0.4c-0.1,0-0.2,0-0.3,0
			c-1.1-0.3-2-0.1-2.5,0.5c-1.2,1.2-2.5,3.3-3.7,6.1c-1.5,3.3-2.2,6.1-2.2,8.6c0,0.1,0,0.2,0,0.3c0.1,0.4,0.2,0.5,0.5,0.5
			c0.5-0.1,1-0.5,1.6-1.3c1.4-1.9,2.8-4.2,4.3-7c1.5-2.8,2.4-5,2.8-6.3c0.2-1,0.4-1.7,0.4-2.1C146.9,181.3,147,181,147.2,180.9z
			 M131.7,141.6c0.6-1.3,0.9-2.1,1-2.5c0.3-1.2,0.6-2.2,1-2.9c0.2-0.4,0.5-0.6,0.8-0.6c0.4-0.1,1,0.1,1.9,0.4
			c0.2,0.1,0.4,0.2,0.4,0.3l-0.4,0.8c-0.6,1.2-1,3.4-1.4,6.3c-0.4,3.2-0.4,5.8-0.1,7.7c0.1,0.6,0.3,0.9,0.6,0.9c0.2,0,0.6-0.4,1-1
			c0.9-1.4,2.2-4,3.8-7.7c1.4-3.3,2.2-5.4,2.5-6.4c0.4-1.6,0.8-2.6,1.2-2.9c0.2-0.2,0.5-0.3,0.7-0.4c0.2,0,0.6,0.1,1.3,0.3
			c0.6,0.2,1,0.4,1,0.5c0,0,0,0.1-0.1,0.2c-0.1,0.1-0.2,0.2-0.2,0.3c-1.4,4-2.1,8.5-2.3,13.6c0.3-0.8,0.6-1.8,1-3
			c0-0.2,0.1-0.3,0.3-0.4c0.2,0,0.4,0.1,0.4,0.4c0,0.1,0,0.2,0,0.3c-0.6,2.3-0.9,4.1-1,5.3c-0.1,0.8-0.2,1.2-0.5,1.2
			c-0.3,0-0.9-0.1-1.9-0.6c-0.5-0.2-0.8-0.8-0.8-1.7c0.1-3.3,0.4-6.2,0.8-8.8c-2.1,5.1-3.9,8.9-5.5,11.5c-0.3,0.6-0.8,0.9-1.3,1
			c-0.4,0.1-0.9,0-1.5-0.3c-1,0-1.6-0.5-1.8-1.3c0-0.2,0-0.3,0-0.5c-0.3-4.3-0.1-7.9,0.6-10.9c-0.2,0.3-0.5,0.7-1,1.2
			c-0.2,0.2-0.3,0.3-0.4,0.2C131.6,142.1,131.6,141.9,131.7,141.6z M128.9,171.8c0.4-0.1,1,0.2,2,0.7c0.6,0.3,0.9,0.7,1,1.1
			c0,0.3,0,0.7,0,1.4c-0.2,3-0.7,5.4-1.4,7.1c-0.3,0.8-0.7,1.2-1.1,1.3c-0.2,0-0.4,0-0.6,0c-1.2-0.2-1.8-0.5-1.9-0.9
			c0-0.2,0.1-0.4,0.4-0.5c1-2.2,1.4-4.6,1.1-7.4c-0.9-0.6-1.8-0.8-2.5-0.7c-1.5,0.2-3.1,1.9-4.8,5c-1.5,2.9-2.7,6.2-3.5,9.9
			c-0.9,3.9-1.1,7-0.6,9.4c0.2,1.4,0.8,2.4,1.8,2.9c0.7,0.4,1.4,0.5,2.2,0.4c0.4-0.1,0.9-0.2,1.5-0.5c1.3-0.7,2.8-1.8,4.5-3.4
			c1.6-1.5,2.8-3,3.8-4.4c0.3-0.5,0.4-1,0.4-1.6c0-0.3,0.1-0.5,0.4-0.6c0.2,0,0.4,0.1,0.5,0.3c0.8,1.2,1.2,2.1,1.3,2.6
			c0.1,0.5,0,1-0.4,1.5c-0.2,0.3-0.8,0.9-1.6,1.8c-2.7,2.9-5.2,4.8-7.3,5.7c-0.7,0.3-1.3,0.5-1.9,0.6c-1.2,0.2-2.2-0.1-3-0.8
			c-3.1-0.6-4.8-2-5.1-4.2c-0.6-3.6-0.3-7.6,0.9-12c1-3.8,2.5-7.3,4.4-10.4c1.8-3,3.5-4.6,4.9-5c0.5-0.1,1.1,0,1.9,0.3
			c0.1,0,0.9,0.5,2.3,1.3C128.4,172.2,128.6,171.9,128.9,171.8z M118.5,138.3c0.5-0.7,0.9-1.1,1.3-1.2c0.5-0.1,1.4,0.3,2.7,1.1
			c0.3-0.2,0.9-0.6,1.8-1.1c0.5-0.2,0.8-0.4,1.1-0.4c0.6-0.1,1.3,0.3,2.2,1.3c0.6,0.6,0.9,1.3,1,2.1c0.2,1.3,0.2,3.1-0.1,5.4
			c-0.4,3.6-1.3,6.5-2.7,8.7c-0.8,1.2-1.7,1.8-2.9,2c-0.4,0.1-1,0.1-1.8,0c-1.4,0.1-2.6-0.1-3.6-0.7c-1.1-0.7-1.7-1.7-1.9-3.1
			c-0.2-1.6,0-3.9,0.5-6.8C116.7,142.3,117.5,139.9,118.5,138.3z M74,138.2c1.3-4.3,2.9-6.6,4.7-6.8c2.2-0.3,5.4,1.9,9.7,6.6
			c0.5-2.1,0.7-3.9,0.4-5.4c-0.1-0.8-0.1-1.2,0.2-1.3c0.2,0,0.8,0.2,1.7,0.7c0.3,0.2,0.4,0.5,0.5,1.1c0.1,0.8-0.2,3.1-0.9,7.1
			c3.4,4.6,6.2,8.9,8.2,12.8c3.8-9.5,7.3-17.1,10.7-22.6c0.3-1.3,0.8-2.5,1.3-3.8c0.2-0.6,0.6-0.9,1-0.9c0.7-0.1,2,0.4,4,1.5
			c0.1,0.1,0.2,0.2,0.2,0.3c0,0.3-0.2,0.5-0.6,0.6c-0.1,0-0.2,0-0.4,0c-0.2,0-0.3,0-0.4,0c-0.7,0.1-1.3,0.9-1.8,2.4
			c-2,6.1-2.7,13.3-2.2,21.8c0.2-0.7,0.5-1.6,0.9-2.8c0.1-0.4,0.3-0.5,0.5-0.6c0.3,0,0.5,0.1,0.5,0.5c0,0.2,0,0.4-0.1,0.6
			c-0.4,1.6-0.6,4-0.7,6.9c0,0.7-0.3,1-0.7,1.1c-0.5,0.1-1.3-0.2-2.5-0.8c-0.5-0.3-0.9-0.5-1-0.7c-0.1-0.2-0.2-0.6-0.2-1.3
			c0-3.3,0.1-7,0.3-11.2c0.2-4.8,0.5-7.6,0.8-8.5c-1.2,2.1-2.7,5.1-4.4,9c-1.6,3.9-3,7.5-4.1,10.9c0.4,0.9,0.7,1.5,0.8,2
			c0.1,0.6-0.3,1.4-1.1,2.5c-0.4,0.6-0.7,0.8-0.9,0.9c-0.2,0-0.7-0.5-1.6-1.6c-0.4-0.5-0.6-0.8-0.7-1.1c0-0.2,0.1-0.7,0.4-1.6
			c-1.5-3.4-4-7.4-7.3-12c-0.9,4.3-1.9,8.2-3,11.8c1.3,1,1.9,1.7,2,2.1c0.1,0.3-0.3,0.6-1,0.8c-1.5,0.4-2.7,1.4-3.5,3
			c0,0.5-0.2,0.7-0.6,0.8c-0.5,0.1-1.4-0.2-2.6-1c-0.4-0.2-0.6-0.4-0.6-0.6c0-0.2,0.1-0.4,0.3-0.7c0.8-1,1.8-2,3-3
			c2-5,3.4-10.2,4.3-15.5c-2.5-3.7-5.2-6-8.1-7.2c-0.5-0.2-0.9-0.3-1.3-0.2c-0.6,0.1-1.1,0.5-1.6,1.2c-0.5,0.7-0.9,1.4-1.4,2.2
			c-0.3,0.4-0.6,0.7-0.9,0.7c-0.3,0-0.4-0.1-0.5-0.3C73.9,138.5,73.9,138.3,74,138.2z M170.3,236.8c-54.1,9.8-108.6-24.7-119.9-79.6
			c15,53.4,70.4,86.5,122,75.3c49.2-10.6,86.1-63,81.6-115.8C262.6,172.2,224.5,227,170.3,236.8z"/>
	</g>
	<g id="XMLID_42_">
		<path id="XMLID_267_" class="st1" d="M113.3,7.2L112,6.7l-2.9,0.3l-2.6,1.4l-0.8,1.1L63.2,68.6L7,147h11.5l59.3-82.7l88.6-26.1
			l97.1,37.7l7.4-7.4L113.3,7.2z M98,34.1l12.6-19.6c0.3-0.4,0.8-0.6,1.2-0.4l21.3,9.6L98,34.1z"/>
	</g>
</g>
</svg>
